<svg width="256" height="256" viewBox="0 0 256 256" fill="none" xmlns="http://www.w3.org/2000/svg">
<path d="M64 170.667C64 182.449 73.5513 192 85.3333 192H128C128 227.346 99.3462 256 64 256C28.6538 256 0 227.346 0 192C0 156.654 28.6538 128 64 128V170.667Z" fill="black"/>
<path d="M192 128C227.346 128 256 156.654 256 192C256 227.346 227.346 256 192 256C156.654 256 128 227.346 128 192C163.346 192 192 163.346 192 128Z" fill="black"/>
<path d="M64 0C99.3462 0 128 28.6538 128 64C92.6538 64 64 92.6538 64 128C28.6538 128 0 99.3462 0 64C0 28.6538 28.6538 0 64 0Z" fill="black"/>
<path d="M192 0C227.346 0 256 28.6538 256 64C256 99.3462 227.346 128 192 128V85.3333C192 73.5513 182.449 64 170.667 64H128C128 28.6538 156.654 0 192 0Z" fill="black"/>
</svg>
